Coordinates
version=1
nRows=12
nColumns=42
inDegrees=yes

Units are S.I. units (second, meters, Newtons, ...)
If the header above contains a line with 'inDegrees', this indicates whether rotational values are in degrees (yes) or radians (no).

endheader
time	pelvis_tilt	pelvis_list	pelvis_rotation	pelvis_tx	pelvis_ty	pelvis_tz	hip_flexion_r	hip_adduction_r	hip_rotation_r	knee_angle_r	knee_adduction_r	knee_angle_r_beta	ankle_angle_r	subtalar_angle_r	mtp_angle_r	hip_flexion_l	hip_adduction_l	hip_rotation_l	knee_angle_l	knee_adduction_l	knee_angle_l_beta	ankle_angle_l	subtalar_angle_l	mtp_angle_l	lumbar_extension	lumbar_bending	lumbar_rotation	arm_flex_r	arm_add_r	arm_rot_r	elbow_flex_r	pro_sup_r	wrist_flex_r	wrist_dev_r	arm_flex_l	arm_add_l	arm_rot_l	elbow_flex_l	pro_sup_l	wrist_flex_l	wrist_dev_l
      0.92000000	     -3.78648934	     -0.22814854	     -2.81041598	     -1.65198224	      0.84280250	      0.22507375	     31.24259776	     -1.25400902	     -8.02191276	     25.68134272	      4.63627280	      0.44822399	      0.41203924	    -14.04983792	     -7.60218477	     -3.53397260	     -3.25882947	     -4.56586169	      9.87342258	     11.19075657	      0.17232373	     18.69768258	     -1.20931917	     -7.60218477	     -7.72657069	     -1.25549753	     -1.60479887	     -2.03171630	    -19.24489552	      1.84227774	     28.41042759	     90.00000001	      0.00000000	      0.00000000	      8.15368036	    -18.25900103	    -14.09345069	     39.90290560	     90.00000001	      0.00000000	      0.00000000
      0.93000000	     -3.82347025	     -0.01756685	     -2.34992755	     -1.64026939	      0.84089779	      0.22503552	     31.18840320	     -1.56126843	     -8.56610398	     22.51048407	      4.76615473	      0.39288206	      0.29127681	    -12.87250722	     -7.60044533	     -4.18346833	     -3.01167923	     -4.38035188	     10.17698779	     11.05523449	      0.17762194	     19.01147771	     -1.01085567	     -7.60044533	     -7.66378406	     -1.40266326	     -2.10053302	     -2.76883863	    -19.19254940	      1.71108949	     28.12721398	     90.00000001	      0.00000000	      0.00000000	      8.78670916	    -18.41121852	    -13.89329815	     40.46349945	     90.00000001	      0.00000000	      0.00000000
      0.94000000	     -3.69559732	     -0.05089151	     -2.00983943	     -1.62824392	      0.83921396	      0.22533631	     30.70147713	     -1.51118281	     -8.47544406	     19.20130979	      5.02985940	      0.33512608	      0.14693821	    -11.21322695	     -7.59777482	     -5.18112640	     -3.22876374	     -4.22010104	     10.24258189	     11.35777613	      0.17876678	     19.59404397	     -0.69787576	     -7.59777482	     -7.77500878	     -1.28059958	     -2.53318423	     -3.22112563	    -19.13610799	      1.32617925	     27.62000772	     90.00000001	      0.00000000	      0.00000000	      9.13235585	    -18.70985187	    -13.28026646	     41.24255154	     90.00000001	      0.00000000	      0.00000000
      0.95000000	     -3.62346260	      0.06026631	     -1.60565419	     -1.61617701	      0.83745226	      0.22553099	     30.43706471	     -1.68520252	     -8.86289675	     16.62580253	      5.13789852	      0.29017499	      0.27265441	     -9.33494067	     -7.59011871	     -5.97957404	     -3.19696236	     -3.98138442	     10.55353933	     11.37160501	      0.18419401	     19.99957338	     -0.14733201	     -7.59011871	     -7.82601603	     -1.31810059	     -2.95708368	     -3.49233548	    -18.85275320	     -0.06707816	     26.65447677	     90.00000001	      0.00000000	      0.00000000	      9.14308550	    -19.25829909	    -11.65995158	     42.71656696	     90.00000001	      0.00000000	      0.00000000
      0.96000000	     -3.60619139	      0.10311753	     -1.24276223	     -1.60400790	      0.83576312	      0.22582983	     30.19088150	     -1.75384850	     -8.90855675	     14.37726260	      5.28143363	      0.25093057	      0.12684239	     -7.94033923	     -7.58788742	     -6.66062403	     -3.29660834	     -3.73606720	     11.00395784	     11.46461832	      0.19205530	     20.23287489	     -0.00370857	     -7.58788742	     -7.79866004	     -1.25834816	     -3.33114961	     -4.04783423	    -18.82851724	     -0.34783150	     26.32944935	     90.00000001	      0.00000000	      0.00000000	      9.53883769	    -19.38776282	    -11.42609854	     43.25708567	     90.00000001	      0.00000000	      0.00000000
      0.97000000	     -3.58026354	      0.09527342	     -0.90661816	     -1.59168493	      0.83421355	      0.22621127	     29.96129965	     -1.75549648	     -8.98281347	     12.63987488	      5.35326649	      0.22060743	      0.11771151	     -6.52022385	     -7.58546110	     -7.30922186	     -3.46386073	     -3.45503981	     11.55313700	     11.54462859	      0.20164028	     20.34964185	      0.17522148	     -7.58546110	     -7.76539477	     -1.14041729	     -3.67228317	     -4.48479369	    -18.79954992	     -0.72035666	     25.86357459	     90.00000001	      0.00000000	      0.00000000	      9.74799932	    -19.55431504	    -10.99960165	     44.00379879	     90.00000001	      0.00000000	      0.00000000
      0.98000000	     -3.58569031	      0.03933716	     -0.57946542	     -1.57932381	      0.83282758	      0.22665364	     29.80481304	     -1.70476073	     -9.03080843	     11.43791976	      5.37801317	      0.19962936	      0.13101142	     -5.29689305	     -7.58336161	     -7.81496544	     -3.71832962	     -3.10316765	     12.29702629	     11.64803105	      0.21462360	     20.29022792	      0.29351218	     -7.58336161	     -7.70589682	     -0.94960534	     -3.97633238	     -4.86350163	    -18.78679440	     -1.08115210	     25.38983619	     90.00000001	      0.00000000	      0.00000000	      9.88166372	    -19.69180701	    -10.58590686	     44.75655621	     90.00000001	      0.00000000	      0.00000000
      0.99000000	     -3.63693151	      0.05217994	     -0.30556439	     -1.56685994	      0.83158143	      0.22709767	     29.84646673	     -1.75641517	     -9.10609542	     11.00335925	      5.43575960	      0.19204485	      0.16431103	     -4.82473753	     -7.58247525	     -8.23440534	     -3.84543077	     -2.61724406	     13.08094001	     11.66619110	      0.22830547	     20.07543579	      0.40331864	     -7.58247525	     -7.57092050	     -0.83420121	     -4.15596365	     -5.42289234	    -18.88306133	     -1.21110669	     25.09957731	     90.00000001	      0.00000000	      0.00000000	     10.07983195	    -19.70213746	    -10.46851189	     45.16171638	     90.00000001	      0.00000000	      0.00000000
      1.00000000	     -3.72553704	      0.05091850	     -0.26461304	     -1.55423040	      0.83052810	      0.22770011	     29.97551274	     -1.67499922	     -8.95673280	     11.05428733	      5.45004692	      0.19293371	      0.14331240	     -4.56478122	     -7.58195734	     -8.71700505	     -3.93471449	     -2.31282000	     13.64609968	     11.67086056	      0.23816937	     19.90586636	      0.48617980	     -7.58195734	     -7.36095479	     -0.68004576	     -4.32264644	     -5.65328654	    -18.92408554	     -1.25723533	     25.04628494	     90.00000001	      0.00000000	      0.00000000	     10.15097910	    -19.68404598	    -10.41397511	     45.34432699	     90.00000001	      0.00000000	      0.00000000
      1.01000000	     -3.72571531	     -0.46107710	      0.14815282	     -1.54164506	      0.82988960	      0.22858479	     29.64403570	     -1.07828315	     -8.96791709	     10.76216714	      5.21134721	      0.18783525	      0.23053984	     -3.05901704	     -7.57623522	     -8.59488060	     -4.94383099	     -2.16571562	     15.69985305	     12.03516784	      0.27401413	     18.86451576	      0.14937723	     -7.57623522	     -7.35346855	     -0.00956054	     -4.57436259	     -5.46123968	    -18.68435534	     -2.61405706	     23.47973413	     90.00000001	      0.00000000	      0.00000000	      9.46098050	    -19.98572525	     -9.32055975	     47.56931744	     90.00000001	      0.00000000	      0.00000000
      1.02000000	     -3.73228932	     -0.75397001	      0.32287160	     -1.52890787	      0.82946979	      0.22942982	     29.50903377	     -0.69674616	     -8.66624929	     11.21521075	      5.13532357	      0.19574235	      0.16290969	     -3.05858945	     -7.57534409	     -8.68929546	     -5.54910147	     -1.62266432	     17.16224378	     12.33090903	      0.29953766	     17.97018330	     -0.06582797	     -7.57534409	     -7.26418983	      0.44582439	     -4.57785314	     -5.76061162	    -18.74352057	     -2.82285388	     23.22564797	     90.00000001	      0.00000000	      0.00000000	      9.54728138	    -19.82850289	     -9.29613547	     47.84026893	     90.00000001	      0.00000000	      0.00000000
      1.03000000	     -3.81428710	     -1.11793919	      0.43897687	     -1.51609755	      0.82922996	      0.23035542	     29.46671055	     -0.20067672	     -8.40488926	     11.99267633	      5.00125430	      0.20931169	     -0.04657860	     -3.39037650	     -7.57411635	     -8.46063480	     -6.23074217	     -1.46351762	     19.13824823	     12.52731427	      0.33402544	     16.54824342	     -0.63727241	     -7.57411635	     -7.07931378	      0.99756283	     -4.58037843	     -5.93931668	    -18.82264084	     -3.10775707	     22.87495204	     90.00000001	      0.00000000	      0.00000000	      9.34511683	    -19.66785928	     -9.27532564	     48.27796601	     90.00000001	      0.00000000	      0.00000000
